<?xml version="1.0" encoding="utf-8"?>
<!-- Generator: Adobe Illustrator 28.0.0, SVG Export Plug-In . SVG Version: 6.00 Build 0)  -->
<svg version="1.1" id="Layer_1" xmlns="http://www.w3.org/2000/svg" xmlns:xlink="http://www.w3.org/1999/xlink" x="0px" y="0px"
	 viewBox="0 0 61.6 5.1" style="enable-background:new 0 0 61.6 5.1;" xml:space="preserve">
<style type="text/css">
	.st0{fill:#A53535;}
</style>
<g>
	<g>
		<path class="st0" d="M58.4,0c0.6,0.7,1.1,1.3,1.7,2c-0.5,0-0.8,0.1-1.1,0.1c-18.3,0-36.7,0-55,0c0,0.2,0.1,0.3,0.1,0.5
			C4.1,2.7,4,2.8,4,2.9c18.1,0,36.2,0,54.2,0c0.5,0,1.1,0,1.8,0.1c-0.6,0.8-1.1,1.4-1.7,2.1c1.1,0,3.3-1.9,3.3-2.6
			C61.6,1.8,59.4,0,58.4,0z"/>
		<path class="st0" d="M1.9,2.9c0-0.3,0-0.5,0-0.8c0.6,0,1.2,0,1.8,0C3.5,1.3,2.8,0.6,1.9,0.6C0.8,0.6,0,1.5,0,2.5s0.8,1.9,1.9,1.9
			c0.9,0,1.7-0.7,1.8-1.6c-0.5,0-1.1,0-1.6,0C2,2.8,2,2.9,1.9,2.9z"/>
		<path class="st0" d="M4,2.1c-0.7,0-1.4,0-2.1,0c0,0.3,0,0.6,0,0.9c0.1,0,0.2,0,0.2,0c0.6,0,1.3,0,1.9,0c0-0.1,0.1-0.2,0.1-0.4
			C4.1,2.4,4,2.2,4,2.1z"/>
	</g>
</g>
</svg>
