<?xml version="1.0" encoding="utf-8"?>
<!-- Generator: Adobe Illustrator 28.0.0, SVG Export Plug-In . SVG Version: 6.00 Build 0)  -->
<svg version="1.1" id="Layer_1" xmlns="http://www.w3.org/2000/svg" xmlns:xlink="http://www.w3.org/1999/xlink" x="0px" y="0px"
	 viewBox="0 0 38.6 33.7" style="enable-background:new 0 0 38.6 33.7;" xml:space="preserve">
<style type="text/css">
	.st0{fill:#9B3B3C;}
</style>
<g>
	<path class="st0" d="M11.7,22.8c-2.2,0-4.3,0-6.5,0c-2.8,0-4.7-1.6-5.1-4.3c-0.2-1.2,0.3-2.3,0.9-3.3c0.2-0.3,0.3-0.8,0.3-1.2
		c-0.2-1.6,0.2-3,1.3-4.2C2.8,9.5,3,9,3,8.6C3,7.2,3.4,6,4.5,5c0.3-0.3,0.4-0.7,0.5-1.1C5.4,1.5,7.2,0,9.6,0c2.5,0,5,0,7.4,0
		c1.7,0,3.2,0.4,4.6,1.3c1.5,1,3,2,4.5,3c1.1,0.7,1.3,1.6,0.7,2.5c-0.6,0.9-1.6,1-2.6,0.3c-1.5-1-2.9-2-4.5-2.9
		c-0.8-0.5-1.8-0.8-2.7-0.8c-2.3-0.1-4.6,0-7,0c-1.3,0-1.7,0.4-1.6,1.7C8.5,6,8.2,6.6,7.5,7.1C6.4,7.8,6.3,8.2,6.9,9.4
		c0.5,1.1,0.2,2-1,2.5c-1.3,0.5-1.5,1.1-0.8,2.3c0.6,1.1,0.4,2-0.7,2.6c-0.6,0.4-1,0.8-0.8,1.6c0.2,0.8,0.8,1,1.5,1
		c3.2,0,6.3,0,9.5,0c0.8,0,1.4,0.1,1.8,0.9c0.4,0.7,0.2,1.3-0.2,2c-0.8,1.8-1.6,3.6-2.3,5.4c-0.4,1.1,0.2,2.2,1.2,2.5
		c1,0.3,1.9-0.2,2.4-1.3c0.3-0.8,0.4-1.8,0.9-2.5c0.9-1.5,1.9-2.8,2.9-4.2c0.8-1,1.8-2,2.7-2.9c0.9-0.9,1.8-1,2.6-0.3
		c0.8,0.7,0.8,1.7,0,2.7c-1,1.1-2,2.3-3.1,3.4c-1.3,1.3-2,2.9-2.5,4.7c-1,3.4-4.1,4.9-7.3,3.7c-2.4-0.9-3.8-3.5-3.2-6
		C10.8,25.8,11.2,24.4,11.7,22.8z"/>
	<path class="st0" d="M38.6,10.8c0,2.7,0,5.4,0,8.1c0,1.8-0.9,2.7-2.7,2.7c-1.4,0-2.8,0-4.3,0c-1.5,0-2.3-0.7-2.5-2.2
		c0-0.3-0.1-0.6-0.1-1c0-5.1,0-10.2,0-15.4c0-0.4,0-0.8,0.1-1.2C29.3,0.8,30,0,31.1,0c1.8,0,3.5,0,5.3,0c1.3,0,2.1,1,2.1,2.5
		C38.6,5.3,38.6,8,38.6,10.8z"/>
</g>
</svg>
