<?xml version="1.0" encoding="utf-8"?>
<!-- Generator: Adobe Illustrator 28.0.0, SVG Export Plug-In . SVG Version: 6.00 Build 0)  -->
<svg version="1.1" id="Layer_1" xmlns="http://www.w3.org/2000/svg" xmlns:xlink="http://www.w3.org/1999/xlink" x="0px" y="0px"
	 viewBox="0 0 50 49.93" style="enable-background:new 0 0 50 49.93;" xml:space="preserve">
<style type="text/css">
	.st0{fill:#9B3B3C;}
</style>
<path class="st0" d="M28.71,49.96c0-5.43,0-10.68,0-16.08c2.01,0,3.96-0.06,5.9,0.02c1.21,0.05,1.8-0.24,1.99-1.57
	c0.33-2.4,0.89-4.78,1.38-7.35c-3.13,0-6.11,0-9.27,0c-0.04-2.42-0.4-4.69,0.56-6.88c0.64-1.47,1.89-2.14,3.39-2.31
	c1.84-0.2,3.7-0.26,5.76-0.4c0-2.4,0.02-4.83-0.03-7.25c-0.01-0.25-0.4-0.66-0.68-0.71c-4.27-0.84-8.55-1.14-12.69,0.51
	c-4.38,1.74-6.34,5.33-6.85,9.8c-0.26,2.31-0.29,4.65-0.44,7.11c-1.49,0-2.96,0.03-4.43-0.01c-0.9-0.03-1.29,0.26-1.26,1.23
	c0.06,2.2,0.05,4.4,0,6.61c-0.02,0.95,0.32,1.26,1.25,1.23c1.47-0.06,2.94-0.02,4.49-0.02c0,5.39,0,10.63,0,15.99
	c-0.42,0.03-0.83,0.08-1.24,0.08c-3.15,0.01-6.31,0.01-9.46,0C3.22,49.94,0.07,47,0.05,43.1c-0.06-12.11-0.07-24.22,0-36.34
	c0.02-3.75,3.06-6.74,6.83-6.76c12.09-0.06,24.18-0.06,36.28,0c3.84,0.02,6.79,3.12,6.81,7.1c0.05,11.92,0.05,23.84,0,35.76
	c-0.02,4.14-3.12,7.08-7.24,7.09C38.09,49.97,33.46,49.96,28.71,49.96z"/>
</svg>
