<?xml version="1.0" encoding="utf-8"?>
<!-- Generator: Adobe Illustrator 28.0.0, SVG Export Plug-In . SVG Version: 6.00 Build 0)  -->
<svg version="1.1" id="Layer_1" xmlns="http://www.w3.org/2000/svg" xmlns:xlink="http://www.w3.org/1999/xlink" x="0px" y="0px"
	 viewBox="0 0 29.4 27.4" style="enable-background:new 0 0 29.4 27.4;" xml:space="preserve">
<style type="text/css">
	.st0{fill:#9B3B3C;}
</style>
<path class="st0" d="M27.2,15c1.4-1.6,2.2-3.7,2.2-5.9c0-5-4-9-9-9c-2.1,0-4.1,0.7-5.7,2C13.1,0.7,11.2,0,9,0C4,0,0,4,0,9
	c0,2.3,0.8,4.3,2.2,5.9l0,0l0.1,0.1c0.2,0.2,0.4,0.5,0.7,0.7l11.7,11.7l11.7-11.7c0.2-0.2,0.5-0.4,0.7-0.7L27.2,15L27.2,15z"/>
</svg>
