<?xml version="1.0" encoding="utf-8"?>
<!-- Generator: Adobe Illustrator 28.0.0, SVG Export Plug-In . SVG Version: 6.00 Build 0)  -->
<svg version="1.1" id="Layer_1" xmlns="http://www.w3.org/2000/svg" xmlns:xlink="http://www.w3.org/1999/xlink" x="0px" y="0px"
	 viewBox="0 0 308 619.1" style="enable-background:new 0 0 308 619.1;" xml:space="preserve">
<style type="text/css">
	.st0{fill:#9B3B3C;}
</style>
<path class="st0" d="M308,80.7c0-34.8-28.2-63-63-63h-62.7v-1.1c0-6.8-4.6-12.7-10.9-14.5C168.1,0.8,161.6,0,154,0
	s-14.1,0.8-17.4,2.1c-6.3,1.8-10.9,7.7-10.9,14.5v1.1H63c-34.8,0-63,28.2-63,63l95,150.5L34.5,355.7c0,34.8,21.9,63,48.9,63h57.3
	v173.8H93c-13.9,0-25.2,11.3-25.2,25.2v1.4h172.5v-1.4c0-13.9-11.3-25.2-25.2-25.2h-47.7V418.7h57.3c27,0,48.9-28.2,48.9-63
	l-60.4-123.4L308,80.7z"/>
</svg>
