<?xml version="1.0" encoding="utf-8"?>
<!-- Generator: Adobe Illustrator 28.0.0, SVG Export Plug-In . SVG Version: 6.00 Build 0)  -->
<svg version="1.1" id="Layer_1" xmlns="http://www.w3.org/2000/svg" xmlns:xlink="http://www.w3.org/1999/xlink" x="0px" y="0px"
	 viewBox="0 0 50 49.93" style="enable-background:new 0 0 50 49.93;" xml:space="preserve">
<style type="text/css">
	.st0{fill:#9B3B3C;}
</style>
<path class="st0" d="M-562.16-99.12c0-5.43,0-10.68,0-16.08c2.01,0,3.96-0.06,5.9,0.02c1.21,0.05,1.8-0.24,1.99-1.57
	c0.33-2.4,0.89-4.78,1.38-7.35c-3.13,0-6.11,0-9.27,0c-0.04-2.42-0.4-4.69,0.56-6.88c0.64-1.47,1.89-2.14,3.39-2.31
	c1.84-0.2,3.7-0.26,5.76-0.4c0-2.4,0.02-4.83-0.03-7.25c-0.01-0.25-0.4-0.66-0.68-0.71c-4.27-0.84-8.55-1.14-12.69,0.51
	c-4.38,1.74-6.34,5.33-6.85,9.8c-0.26,2.31-0.29,4.65-0.44,7.11c-1.49,0-2.96,0.03-4.43-0.01c-0.9-0.03-1.29,0.26-1.26,1.23
	c0.06,2.2,0.05,4.4,0,6.61c-0.02,0.95,0.32,1.26,1.25,1.23c1.47-0.06,2.94-0.02,4.49-0.02c0,5.39,0,10.63,0,15.99
	c-0.41,0.03-0.83,0.08-1.24,0.08c-3.15,0.01-6.31,0.01-9.46,0c-3.86-0.02-7.01-2.96-7.03-6.85c-0.06-12.11-0.07-24.22,0-36.34
	c0.02-3.75,3.06-6.74,6.83-6.76c12.09-0.06,24.18-0.06,36.28,0c3.84,0.02,6.79,3.12,6.81,7.1c0.05,11.92,0.05,23.84,0,35.76
	c-0.02,4.14-3.12,7.08-7.24,7.09C-552.78-99.12-557.41-99.12-562.16-99.12z"/>
<g>
	<g>
		<path class="st0" d="M25.09,0.02c3.65,0,7.3-0.05,10.94,0.01c7.51,0.12,13.49,5.56,13.77,13.13c0.3,8.16,0.23,16.35-0.03,24.51
			c-0.2,6.27-6.13,12.03-12.35,12.16c-8.3,0.17-16.6,0.18-24.9-0.01C6.24,49.69,0.45,43.74,0.27,37.41
			c-0.2-6.97-0.31-13.95-0.25-20.92c0.03-3.29,0.17-6.63,2.02-9.61C4.75,2.53,8.71,0.3,13.71,0.06C17.49-0.13,21.29,0.02,25.09,0.02
			z M24.95,46.11c0-0.1,0.01-0.19,0.01-0.29c2.98,0,5.95,0.01,8.93-0.01c0.77,0,1.53-0.08,2.3-0.15c5.15-0.47,8.25-3.04,9.13-7.65
			c0.25-1.32,0.41-2.67,0.43-4.01c0.07-4.71,0.17-9.43,0.06-14.14c-0.07-2.96-0.22-5.98-0.82-8.87c-0.69-3.33-3.06-5.48-6.38-6.12
			c-2.52-0.48-5.14-0.63-7.71-0.63c-5.85-0.01-11.7,0.08-17.55,0.29c-3.82,0.14-6.73,2.03-8.1,5.67c-0.64,1.71-0.87,3.66-0.92,5.51
			C4.2,21.1,4.22,26.49,4.28,31.88c0.02,2.15,0.15,4.33,0.53,6.45c0.67,3.78,3.36,6.53,7.1,6.94C16.23,45.75,20.6,45.85,24.95,46.11
			z"/>
		<path class="st0" d="M37.77,25.15c0.19,6.5-5.28,12.79-12.83,12.79c-7.01,0-12.73-5.82-12.8-12.77c-0.08-7.1,5.9-13.08,13.01-13
			C32.2,12.23,37.81,18,37.77,25.15z M33.48,25.07c0.01-4.76-3.68-8.53-8.42-8.61c-4.63-0.08-8.66,3.94-8.64,8.62
			c0.02,4.63,3.96,8.54,8.58,8.54C29.7,33.63,33.47,29.82,33.48,25.07z"/>
		<path class="st0" d="M38.47,8.62c1.56-0.03,2.87,1.21,2.93,2.75c0.06,1.66-1.15,2.97-2.8,3.02c-1.7,0.05-3.03-1.25-3.03-2.96
			C35.57,9.95,36.91,8.65,38.47,8.62z"/>
	</g>
</g>
</svg>
