<?xml version="1.0" encoding="utf-8"?>
<!-- Generator: Adobe Illustrator 28.0.0, SVG Export Plug-In . SVG Version: 6.00 Build 0)  -->
<svg version="1.1" id="Layer_1" xmlns="http://www.w3.org/2000/svg" xmlns:xlink="http://www.w3.org/1999/xlink" x="0px" y="0px"
	 viewBox="0 0 172.63 128.37" style="enable-background:new 0 0 172.63 128.37;" xml:space="preserve">
<path d="M166.33,122.34c-2.28-1.5-4.32-4.53-6.12-9.09L120.74,11.51c1.05-3.32,8-5.79,8.83-6.14c0.84-0.36,9.64-1.67,13.51-1.78
	l0.11-3.6h-26.92h-2.88L74.44,100.45C65.76,78.67,34.76,0,34.76,0c-1.92,0.12-4.29,0.24-7.11,0.36c-2.82,0.12-5.55,0.18-8.19,0.18
	c-3,0-6.03-0.06-9.09-0.18C7.3,0.24,4.75,0.12,2.71,0v3.6c4.08,0.12,7.17,0.57,9.27,1.35c2.1,0.78,3.51,2.22,4.23,4.32
	c0.72,2.1,1.08,5.37,1.08,9.81v35.3c-0.65,0.08-1.2,0.27-1.52,0.52c-0.03,0.02-0.05,0.04-0.08,0.06c-0.04,0.04-0.08,0.08-0.11,0.12
	c-0.01,0.01-0.02,0.02-0.02,0.03c-0.03,0.04-0.05,0.08-0.07,0.12c-0.05,0.09-0.1,0.19-0.13,0.3c-0.53,1.56-1.52,3.32-2.85,4.4h-8
	c-1.76,0-3.29,0.96-4.1,2.38c-0.65,1.13-0.5,2.55,0.14,3.68l9.07,15.94c0.69,1.22,0.69,2.72,0,3.94l-6.4,11.24
	c-1.42,2.49,0.2,5.83,3.07,5.87c0.02,0,0.05,0,0.07,0H17.3v3.59c0,4.32-0.36,7.71-1.08,10.17c-0.72,2.46-2.13,4.2-4.23,5.22
	c-2.1,1.02-5.19,1.65-9.27,1.89v3.6c2.04-0.24,4.59-0.39,7.65-0.45s6.09-0.09,9.09-0.09c3.12,0,6.42,0.03,9.9,0.09
	c3.48,0.06,6.3,0.21,8.46,0.45v-3.6c-4.68-0.24-8.19-0.87-10.53-1.89c-2.34-1.02-3.9-2.76-4.68-5.22
	c-0.78-2.46-1.17-5.85-1.17-10.17V11.52l45.37,116.85l9.87-22.39l9.68-25.86h43.54l11.05,29.53c2.4,6.12,2.76,10.11,1.08,11.97
	c-1.68,1.86-5.58,2.91-11.7,3.15v3.6c2.52-0.24,5.82-0.39,9.9-0.45c4.08-0.06,8.46-0.09,13.14-0.09c3.48,0,6.96,0.03,10.44,0.09
	c3.48,0.06,6.42,0.21,8.82,0.45v-3.6C170.71,124.65,168.61,123.84,166.33,122.34z M87.74,76.52l20.69-53.75l20.11,53.75H87.74z"/>
</svg>
