<?xml version="1.0" encoding="utf-8"?>
<!-- Generator: Adobe Illustrator 28.0.0, SVG Export Plug-In . SVG Version: 6.00 Build 0)  -->
<svg version="1.1" id="Layer_1" xmlns="http://www.w3.org/2000/svg" xmlns:xlink="http://www.w3.org/1999/xlink" x="0px" y="0px"
	 viewBox="0 0 50 50" style="enable-background:new 0 0 50 50;" xml:space="preserve">
<style type="text/css">
	.st0{fill:#9B3B3C;}
</style>
<path class="st0" d="M24.9,50C11.1,50-0.1,38.7,0,24.8C0.1,11.5,10.4,0,25,0c14.3,0,24.9,11.3,25,25C50.1,38.8,38.8,50,24.9,50z
	 M22.6,18.4c0,2.1-0.1,4.2,0,6.3c0.1,0.8,0.4,1.8,1,2.2c3.1,2.2,6.3,4.3,9.5,6.4c0.8,0.5,1.7,0.6,2.6,0c1.5-1.1,1.6-2.9,0-4.1
	c-2.3-1.7-4.7-3.2-7.1-4.8c-0.9-0.6-1.3-1.2-1.3-2.3c0.1-3.4,0-6.9,0-10.3c0-1.7-0.9-2.6-2.4-2.6c-1.5,0-2.4,0.9-2.4,2.6
	C22.5,14,22.6,16.2,22.6,18.4z"/>
</svg>
