<?xml version="1.0" encoding="utf-8"?>
<!-- Generator: Adobe Illustrator 28.0.0, SVG Export Plug-In . SVG Version: 6.00 Build 0)  -->
<svg version="1.1" id="Layer_1" xmlns="http://www.w3.org/2000/svg" xmlns:xlink="http://www.w3.org/1999/xlink" x="0px" y="0px"
	 viewBox="0 0 29.4 29.5" style="enable-background:new 0 0 29.4 29.5;" xml:space="preserve">
<style type="text/css">
	.st0{fill:#9B3B3C;}
</style>
<path class="st0" d="M8.4,0c1.6,0,3.2,0,4.8,0c1.2,0,2.2,0.4,3.1,1.3C20.2,5.2,24.1,9.1,28,13c1.9,1.9,1.9,4.5,0,6.4
	c-2.9,2.9-5.8,5.8-8.7,8.7c-1.9,1.9-4.4,1.9-6.3,0c-3.9-3.9-7.7-7.8-11.6-11.6c-0.9-0.9-1.4-2-1.4-3.2c0-3.2,0-6.5,0-9.7
	C0,1.3,1.3,0,3.5,0C5.1,0,6.7,0,8.4,0z M7.5,5.3c-1.3,0-2.3,1-2.3,2.2c0,1.3,1,2.2,2.2,2.2c1.3,0,2.2-0.9,2.2-2.2
	C9.7,6.2,8.8,5.3,7.5,5.3z"/>
</svg>
