<?xml version="1.0" encoding="utf-8"?>
<!-- Generator: Adobe Illustrator 28.0.0, SVG Export Plug-In . SVG Version: 6.00 Build 0)  -->
<svg version="1.1" id="Layer_1" xmlns="http://www.w3.org/2000/svg" xmlns:xlink="http://www.w3.org/1999/xlink" x="0px" y="0px"
	 viewBox="0 0 34.4 29.5" style="enable-background:new 0 0 34.4 29.5;" xml:space="preserve">
<style type="text/css">
	.st0{fill:#9B3B3C;}
</style>
<g>
	<path class="st0" d="M17.4,27.4c-5.8,0-11.6,0-17.4,0c0-0.3,0-0.6,0-0.9c0-5.7,0-11.4,0-17c0-0.5,0.1-0.9,0.3-1.4
		c1.1-2.5,2.2-5,3.2-7.6C3.7,0.1,4,0,4.4,0c6,0,12,0,17.9,0c0.3,0,0.7,0.3,0.8,0.5c1.2,2.6,2.3,5.3,3.4,7.9c0.2,0.4,0.1,0.8,0.2,1.1
		c-1.3,0.2-2.6,0.1-3.7,0.6c-1.5,0.6-3,0.6-4.5,0.6c-5,0-10,0-15,0c-0.6,0-0.8,0.1-0.8,0.8c0,4.1,0,8.2,0,12.3
		c0,0.7,0.2,0.8,0.8,0.8c3.9,0,7.8,0,11.7,0c0.5,0,0.8,0.1,1,0.6C16.5,26,17,26.7,17.4,27.4z M3.4,7.9c2.8,0,5.5,0,8.1,0
		c0.1,0,0.4-0.2,0.4-0.4c0-1.5,0-3.1,0-4.7c-2.1,0-4.1,0-6.1,0C5.7,2.9,5.5,3,5.5,3.1C4.8,4.7,4.2,6.2,3.4,7.9z M23.3,7.9
		c-0.7-1.7-1.4-3.3-2.1-4.8c-0.1-0.1-0.4-0.2-0.6-0.2c-1.8,0-3.5,0-5.3,0c-0.5,0-0.6,0.2-0.6,0.7c0,0.8,0,1.6,0,2.4c0,2,0,2,1.9,2
		C18.8,7.9,20.9,7.9,23.3,7.9z"/>
	<path class="st0" d="M34.4,20.6c0,4.9-3.7,8.8-8.5,8.8c-4.8,0-8.7-3.9-8.7-8.8c0-4.9,3.8-8.8,8.5-8.8
		C30.6,11.8,34.4,15.7,34.4,20.6z M24.9,24.4c1.8-1.9,3.7-3.8,5.7-5.9c-0.4-0.4-0.9-0.8-1.3-1.3c-1.4,1.4-2.8,2.9-4.4,4.5
		c-0.8-0.9-1.4-1.8-2.2-2.7c-0.6,0.6-1,1.1-1.5,1.5C22.4,21.9,23.6,23.2,24.9,24.4z"/>
</g>
</svg>
