<?xml version="1.0" encoding="utf-8"?>
<!-- Generator: Adobe Illustrator 28.0.0, SVG Export Plug-In . SVG Version: 6.00 Build 0)  -->
<svg version="1.1" id="Layer_1" xmlns="http://www.w3.org/2000/svg" xmlns:xlink="http://www.w3.org/1999/xlink" x="0px" y="0px"
	 viewBox="0 0 43.69 50.02" style="enable-background:new 0 0 43.69 50.02;" xml:space="preserve">
<style type="text/css">
	.st0{fill:#9B3B3C;}
</style>
<g>
	<g>
		<path class="st0" d="M21.89,50.02c-6.18,0-12.37,0-18.55,0c-2.34,0-3.43-1.15-3.33-3.51c0.37-8.72,6.84-15.75,15.57-16.48
			c5.23-0.44,10.52-0.76,15.7,0.54c6.31,1.58,11.5,7.63,12.21,14.13c0.08,0.7,0.21,1.41,0.23,2.11c0.04,2.04-1.1,3.2-3.14,3.2
			C34.34,50.02,28.12,50.02,21.89,50.02z"/>
		<path class="st0" d="M34.21,12.53c0.34,6.22-5.15,12.46-12.39,12.39c-6.84-0.06-12.4-5.54-12.42-12.34
			C9.38,5.64,14.95-0.06,21.83-0.02C29.45,0.02,34.63,6.52,34.21,12.53z"/>
	</g>
</g>
</svg>
