<?xml version="1.0" encoding="utf-8"?>
<!-- Generator: Adobe Illustrator 28.0.0, SVG Export Plug-In . SVG Version: 6.00 Build 0)  -->
<svg version="1.1" id="Layer_1" xmlns="http://www.w3.org/2000/svg" xmlns:xlink="http://www.w3.org/1999/xlink" x="0px" y="0px"
	 viewBox="0 0 50 50" style="enable-background:new 0 0 50 50;" xml:space="preserve">
<style type="text/css">
	.st0{fill:#9B3B3C;}
</style>
<g>
	<g>
		<path class="st0" d="M22.3,49.7c0.5-1.6,0.9-3,1.3-4.6c2,1,3.3-0.2,4.4-1.6c2.1-2.6,3.1-5.7,3.9-9.2c-1.7,0-3.3,0-5.1,0
			c0.4-1.5,0.7-2.7,1.1-3.9c0.1-0.3,0.6-0.5,0.9-0.6c1-0.1,2,0,3-0.1c0.3,0,0.9-0.5,0.9-0.8c0.1-2.6,0-5.2,0-7.8
			c0-0.7-0.3-0.9-1-0.9c-4.5,0-9,0-13.5,0c-1,0-1.1,0.6-1,1.3c0.2,1.2-0.4,1.6-1.5,1.8c-1,0.2-2,0.5-3.1,0.9c0-1.4,0-2.5,0-3.9
			c-2.4,0-4.7,0-7.1,0c-0.2,0-0.6,0.6-0.6,0.9c-0.2,1.5-0.3,3-0.4,4.5c0,0.6-0.1,1-0.8,1.1c-1.1,0.2-2.1,0.6-3.2,0.9
			c-2.5-5,2.3-17,8.7-22.1C18.8-1.9,31.8-1.9,41,5.7C49.8,13,52.5,26,47.5,36.1C42,46.9,30.7,51.1,22.3,49.7z M31.9,15.7
			c0-0.3,0.1-0.5,0-0.7c-1-2.6-1.8-5.3-3.2-7.7c-2.2-3.7-5-3.6-7.2,0.1c-1.2,2.1-1.9,4.4-2.9,6.6c-0.2,0.5-0.2,1-0.4,1.6
			C22.9,15.7,27.4,15.7,31.9,15.7z M37.5,29.8c2.4,0,4.7,0,7,0c0.2,0,0.7-0.5,0.7-0.8c0.1-2.2,0.4-4.3,0.2-6.5
			c-0.2-2.6,0.1-2.2-2.5-2.2c-1.8,0-3.6,0-5.4,0C37.5,23.5,37.5,26.6,37.5,29.8z M43.3,15.7c-2.3-4.3-5.4-7.2-9.5-9.2
			c0.9,2.9,1.8,5.7,2.7,8.5c0.1,0.3,0.4,0.6,0.6,0.6C39.1,15.7,41.1,15.7,43.3,15.7z M16.3,6.8c-2.6,0.4-8.7,6-9.1,9
			c1.9,0,3.8,0,5.7,0c0.3,0,0.6-0.4,0.7-0.6C14.6,12.3,15.4,9.5,16.3,6.8z M33.9,43.2c2.6-0.3,8.6-6,9-8.8c-1.9,0-3.8,0-5.7,0
			c-0.3,0-0.7,0.5-0.8,0.9C35.6,37.9,34.8,40.6,33.9,43.2z"/>
		<path class="st0" d="M9.9,36.1c-2.1-1.1-3.8-1.9-5.5-2.8c-0.3-0.2-0.7-0.3-1-0.6c-1-0.8-0.7-2.1,0.5-2.5c6.5-2,13-3.9,19.6-5.9
			c1.6-0.5,2.5,0.4,2.1,2.1c-1.8,6.5-3.7,13-5.7,19.5c-0.2,0.5-0.9,1.2-1.3,1.2c-0.6,0-1.3-0.5-1.6-1c-1-1.8-1.9-3.6-2.9-5.6
			c-0.4,0.4-0.8,0.6-1.1,0.9c-2.3,2.3-4.7,4.7-7,7c-0.3,0.3-0.5,0.5-0.8,0.8C3.9,50.3,2,50.2,1,49c-1.1-1.2-1.1-3,0.1-4.3
			c1.7-1.8,3.4-3.5,5.1-5.2C7.4,38.5,8.5,37.4,9.9,36.1z"/>
	</g>
</g>
</svg>
