<?xml version="1.0" encoding="utf-8"?>
<!-- Generator: Adobe Illustrator 28.0.0, SVG Export Plug-In . SVG Version: 6.00 Build 0)  -->
<svg version="1.1" id="Layer_1" xmlns="http://www.w3.org/2000/svg" xmlns:xlink="http://www.w3.org/1999/xlink" x="0px" y="0px"
	 viewBox="0 0 50 49.93" style="enable-background:new 0 0 50 49.93;" xml:space="preserve">
<style type="text/css">
	.st0{fill:#9B3B3C;}
</style>
<path class="st0" d="M-562.16-99.12c0-5.43,0-10.68,0-16.08c2.01,0,3.96-0.06,5.9,0.02c1.21,0.05,1.8-0.24,1.99-1.57
	c0.33-2.4,0.89-4.78,1.38-7.35c-3.13,0-6.11,0-9.27,0c-0.04-2.42-0.4-4.69,0.56-6.88c0.64-1.47,1.89-2.14,3.39-2.31
	c1.84-0.2,3.7-0.26,5.76-0.4c0-2.4,0.02-4.83-0.03-7.25c-0.01-0.25-0.4-0.66-0.68-0.71c-4.27-0.84-8.55-1.14-12.69,0.51
	c-4.38,1.74-6.34,5.33-6.85,9.8c-0.26,2.31-0.29,4.65-0.44,7.11c-1.49,0-2.96,0.03-4.43-0.01c-0.9-0.03-1.29,0.26-1.26,1.23
	c0.06,2.2,0.05,4.4,0,6.61c-0.02,0.95,0.32,1.26,1.25,1.23c1.47-0.06,2.94-0.02,4.49-0.02c0,5.39,0,10.63,0,15.99
	c-0.41,0.03-0.83,0.08-1.24,0.08c-3.15,0.01-6.31,0.01-9.46,0c-3.86-0.02-7.01-2.96-7.03-6.85c-0.06-12.11-0.07-24.22,0-36.34
	c0.02-3.75,3.06-6.74,6.83-6.76c12.09-0.06,24.18-0.06,36.28,0c3.84,0.02,6.79,3.12,6.81,7.1c0.05,11.92,0.05,23.84,0,35.76
	c-0.02,4.14-3.12,7.08-7.24,7.09C-552.78-99.12-557.41-99.12-562.16-99.12z"/>
<g>
	<g>
		<path class="st0" d="M-442.38-165.16c3.65,0,7.3-0.05,10.94,0.01c7.51,0.12,13.49,5.56,13.77,13.13
			c0.3,8.16,0.23,16.35-0.03,24.51c-0.2,6.27-6.13,12.03-12.35,12.16c-8.3,0.17-16.6,0.18-24.9-0.01
			c-6.29-0.14-12.07-6.09-12.26-12.41c-0.2-6.97-0.31-13.95-0.25-20.92c0.03-3.29,0.17-6.63,2.02-9.61
			c2.71-4.35,6.67-6.58,11.67-6.83C-449.97-165.31-446.17-165.16-442.38-165.16z M-442.52-119.07c0-0.1,0.01-0.19,0.01-0.29
			c2.98,0,5.95,0.01,8.93-0.01c0.77,0,1.53-0.08,2.3-0.15c5.15-0.47,8.25-3.04,9.13-7.65c0.25-1.32,0.41-2.67,0.43-4.01
			c0.07-4.71,0.17-9.43,0.06-14.14c-0.07-2.96-0.22-5.98-0.82-8.87c-0.69-3.33-3.06-5.48-6.38-6.12c-2.52-0.48-5.14-0.63-7.71-0.63
			c-5.85-0.01-11.7,0.08-17.55,0.29c-3.82,0.14-6.73,2.03-8.1,5.67c-0.64,1.71-0.87,3.66-0.92,5.51
			c-0.13,5.39-0.11,10.78-0.05,16.16c0.02,2.15,0.15,4.33,0.53,6.45c0.67,3.78,3.36,6.53,7.1,6.94
			C-451.23-119.42-446.87-119.33-442.52-119.07z"/>
		<path class="st0" d="M-429.69-140.03c0.19,6.5-5.28,12.79-12.83,12.79c-7.01,0-12.73-5.82-12.8-12.77
			c-0.08-7.1,5.9-13.08,13.01-13C-435.27-152.95-429.66-147.17-429.69-140.03z M-433.98-140.1c0.01-4.76-3.68-8.53-8.42-8.61
			c-4.63-0.08-8.66,3.94-8.64,8.62c0.02,4.63,3.96,8.54,8.58,8.54C-437.76-131.55-433.99-135.35-433.98-140.1z"/>
		<path class="st0" d="M-429-156.56c1.56-0.03,2.87,1.21,2.93,2.75c0.06,1.66-1.15,2.97-2.8,3.02c-1.7,0.05-3.03-1.25-3.03-2.96
			C-431.9-155.23-430.56-156.53-429-156.56z"/>
	</g>
</g>
<path class="st0" d="M22.39,32.52c-2.45,3.05-4.78,5.93-7.09,8.81c-2.11,2.63-4.19,5.28-6.34,7.87c-0.33,0.39-0.92,0.72-1.4,0.74
	c-2.11,0.08-4.23,0.03-6.63,0.03c0.35-0.51,0.56-0.86,0.81-1.17c5.37-6.68,10.71-13.39,16.13-20.02c0.88-1.08,0.8-1.77,0.03-2.86
	C12.18,17.83,6.52,9.69,0.84,1.56C0.59,1.19,0.37,0.8,0,0.2c0.55-0.07,0.93-0.16,1.31-0.16C5.64,0.03,9.97-0.01,14.3,0.08
	c0.67,0.01,1.54,0.5,1.95,1.08c3.19,4.45,6.29,8.98,9.42,13.48c0.3,0.44,0.64,0.85,1.08,1.43c1.83-2.28,3.56-4.43,5.29-6.59
	c2.1-2.63,4.24-5.23,6.28-7.92c0.86-1.13,1.76-1.66,3.13-1.55c1.72,0.14,3.45,0.03,5.63,0.03c-0.91,1.18-1.55,2.03-2.2,2.85
	C40.33,8.57,35.8,14.28,31.2,19.92c-0.79,0.97-0.76,1.59-0.06,2.6c6.07,8.71,12.08,17.46,18.11,26.19c0.22,0.32,0.43,0.66,0.74,1.14
	c-0.47,0.05-0.82,0.12-1.17,0.12c-4.33,0.01-8.66,0.05-12.99-0.04c-0.62-0.01-1.43-0.47-1.82-1.01
	c-3.66-5.09-7.24-10.25-10.85-15.39C22.98,33.25,22.76,32.99,22.39,32.52z M41.26,45.14c-0.46-0.75-0.68-1.18-0.95-1.56
	c-1.67-2.42-3.35-4.83-5.03-7.24c-7.1-10.24-14.19-20.48-21.29-30.71c-0.27-0.39-0.67-0.9-1.03-0.93c-1.37-0.11-2.75-0.04-4.47-0.04
	c0.54,0.81,0.85,1.3,1.19,1.78c4.19,6,8.39,12,12.58,18c4.53,6.49,9.06,12.99,13.62,19.46c0.37,0.52,0.94,1.12,1.48,1.2
	C38.49,45.26,39.67,45.14,41.26,45.14z"/>
</svg>
